<?xml version="1.0" standalone="no"?>
<!DOCTYPE svg PUBLIC "-//W3C//DTD SVG 20010904//EN"
 "http://www.w3.org/TR/2001/REC-SVG-20010904/DTD/svg10.dtd">
<svg version="1.0" xmlns="http://www.w3.org/2000/svg"
 width="820.000000pt" height="232.000000pt" viewBox="0 0 820.000000 232.000000"
 preserveAspectRatio="xMidYMid meet">
<metadata>
Created by potrace 1.16, written by Peter Selinger 2001-2019
</metadata>
<g transform="translate(0.000000,232.000000) scale(0.100000,-0.100000)"
fill="#000000" stroke="none">
<path d="M4517 1832 l-77 -77 0 -266 c0 -146 -3 -334 -7 -417 -6 -145 -7 -152
-27 -152 -11 0 -45 25 -78 57 l-58 57 0 113 c0 69 -4 113 -10 113 -5 0 -10 11
-10 25 0 14 -7 28 -15 31 -9 4 -15 19 -15 40 0 19 -4 34 -10 34 -5 0 -10 16
-10 35 0 33 -2 35 -35 35 -33 0 -35 -2 -35 -34 0 -19 -4 -38 -10 -41 -5 -3
-10 -19 -10 -36 0 -16 -4 -29 -10 -29 -6 0 -10 -51 -10 -134 0 -124 -1 -135
-19 -141 -12 -3 -21 -17 -23 -33 -2 -19 -10 -28 -24 -30 -12 -2 -32 -14 -45
-28 -12 -13 -26 -24 -31 -24 -4 0 -8 68 -8 150 0 93 -4 150 -10 150 -5 0 -10
7 -10 15 0 10 -11 15 -35 15 -23 0 -35 -5 -35 -14 0 -7 -9 -16 -20 -19 -18 -5
-20 -14 -20 -91 l0 -86 -30 0 c-28 0 -30 2 -30 40 0 36 -3 40 -25 40 -35 0
-65 -29 -65 -62 0 -27 -2 -28 -48 -28 -41 0 -53 5 -80 33 -18 18 -32 43 -32
54 0 12 -11 35 -25 51 -14 17 -25 37 -25 46 0 10 -9 16 -25 16 -16 0 -25 6
-25 15 0 10 -11 15 -35 15 -24 0 -35 -5 -35 -15 0 -8 -7 -15 -16 -15 -12 0
-15 -10 -14 -47 4 -105 0 -133 -15 -133 -11 0 -15 -11 -15 -38 0 -30 -7 -45
-35 -72 l-35 -34 0 177 0 177 -45 0 c-41 0 -45 2 -45 25 0 24 -3 25 -62 25
-54 0 -66 -4 -90 -27 -27 -26 -28 -29 -28 -139 0 -126 -4 -144 -31 -144 -11 0
-27 -4 -37 -9 -9 -5 -25 -12 -34 -15 -13 -4 -18 -16 -18 -41 l0 -35 -50 0 -50
0 0 75 0 75 -35 0 -35 0 0 235 0 235 -58 0 c-81 0 -92 -14 -92 -113 l0 -77
-30 0 -30 0 0 215 0 215 -49 0 c-49 0 -50 0 -53 34 l-3 35 -67 -65 -68 -64 0
-320 0 -320 -35 0 -35 0 0 60 c0 33 -4 60 -10 60 -6 0 -10 37 -10 90 0 88 -1
90 -24 90 -13 0 -29 7 -36 15 -14 17 -82 20 -111 5 -17 -10 -19 -22 -19 -135
l0 -125 -40 0 -40 0 0 -60 0 -60 -55 0 -55 0 0 255 0 255 -65 0 c-61 0 -66 -2
-75 -25 -5 -14 -14 -25 -20 -25 -6 0 -10 -86 -10 -250 0 -243 -1 -250 -20
-250 -16 0 -20 -7 -20 -30 0 -28 -3 -30 -35 -30 -35 0 -35 0 -35 45 0 33 -4
45 -15 45 -12 0 -15 13 -15 61 0 52 -3 62 -20 66 -13 3 -20 14 -20 29 0 15 -6
24 -15 24 -8 0 -15 9 -15 20 0 17 -7 20 -45 20 -33 0 -45 -4 -45 -15 0 -9 -9
-15 -25 -15 -24 0 -25 -3 -25 -60 0 -57 -1 -60 -25 -60 -23 0 -24 3 -27 68
l-3 67 -36 3 c-23 2 -40 -2 -49 -12 -7 -10 -28 -16 -51 -16 l-39 0 0 -115 c0
-108 -1 -115 -20 -115 -13 0 -20 -7 -20 -20 0 -18 -7 -20 -70 -20 l-70 0 0
135 c0 74 -4 135 -9 135 -5 0 -11 9 -14 20 -7 28 -57 28 -64 0 -3 -11 -11 -20
-18 -20 -18 0 -24 -31 -32 -157 l-6 -113 -39 0 -38 0 0 50 0 50 -55 0 -55 0 0
163 c0 150 -1 164 -20 180 -26 22 -80 23 -80 2 0 -8 -7 -15 -15 -15 -12 0 -15
-18 -15 -105 l0 -105 -35 0 -35 0 0 -111 c0 -109 0 -110 -22 -107 -22 3 -23 7
-26 136 l-3 132 -24 0 c-14 0 -25 -4 -25 -10 0 -5 -7 -10 -15 -10 -13 0 -15
-21 -15 -125 0 -104 -2 -125 -15 -125 -13 0 -15 -55 -15 -435 l0 -435 4000 0
4000 0 0 545 0 545 -45 0 -45 0 0 -111 0 -110 -47 3 -48 3 -3 208 -2 207 -33
0 c-22 0 -41 -8 -55 -23 -20 -21 -22 -34 -22 -140 0 -107 -2 -117 -18 -117
-25 0 -52 -31 -52 -59 0 -14 -5 -21 -12 -19 -9 3 -14 41 -16 132 l-3 127 -37
-3 c-36 -3 -37 -4 -40 -45 -3 -43 -3 -43 -43 -43 l-39 0 0 120 c0 100 -2 120
-15 120 -8 0 -15 7 -15 15 0 8 -9 15 -20 15 -13 0 -20 -7 -20 -20 0 -13 -7
-20 -20 -20 -19 0 -20 -8 -22 -227 l-3 -228 -77 -3 -78 -3 0 86 c0 84 0 85
-25 85 -23 0 -24 3 -27 73 l-3 72 -52 3 -52 3 -3 -143 c-3 -135 -4 -143 -23
-143 -18 0 -20 8 -23 75 -2 41 -8 80 -14 87 -6 7 -28 13 -49 13 l-39 0 0 85 0
85 -40 0 -40 0 0 -94 c0 -53 -4 -98 -10 -101 -5 -3 -10 -28 -10 -56 l0 -49
-35 0 -34 0 -3 93 -3 92 -37 3 c-33 3 -38 0 -38 -17 0 -17 -6 -21 -30 -21
l-30 0 0 -75 0 -75 -35 0 -34 0 -3 83 c-3 82 -3 82 -31 85 -16 2 -39 -4 -52
-12 -13 -9 -37 -16 -53 -16 -33 0 -62 -27 -62 -58 0 -18 -6 -22 -35 -22 l-35
0 0 85 0 85 -59 0 -60 0 -3 -52 -3 -53 -42 -3 -42 -3 -3 -67 -3 -67 -57 -3
c-49 -3 -58 0 -58 14 0 9 -13 32 -30 51 -19 21 -30 45 -30 63 0 28 -2 30 -40
30 l-40 0 0 -48 c0 -26 -5 -53 -12 -60 -36 -36 -98 10 -98 71 0 30 -4 37 -20
37 -19 0 -20 7 -20 90 l0 90 -50 0 -50 0 0 -200 0 -200 -40 0 -40 0 0 88 c0
76 -3 91 -20 107 -16 14 -20 31 -20 75 0 65 -11 80 -57 80 l-33 0 0 -108 c0
-96 -2 -111 -20 -127 -20 -18 -20 -17 -20 38 0 42 -4 57 -14 57 -7 0 -16 9
-19 20 -6 24 -55 28 -63 5 -4 -8 -15 -15 -25 -15 -17 0 -19 -9 -19 -110 l0
-110 -40 0 -40 0 0 130 c0 100 -3 130 -13 130 -7 0 -28 16 -47 35 -25 26 -42
35 -67 35 -23 0 -33 -5 -33 -15 0 -9 -9 -15 -25 -15 -20 0 -25 -5 -25 -25 0
-22 -4 -25 -34 -25 -25 0 -35 -5 -39 -20 -3 -11 -12 -20 -21 -20 -14 0 -16
-16 -16 -106 l0 -105 -47 3 -48 3 -3 85 c-2 47 -7 89 -12 94 -6 6 -10 32 -10
58 l0 48 -35 0 -35 0 0 355 c0 195 -3 355 -8 355 -4 0 -42 -35 -85 -78z"/>
</g>
</svg>
